<svg version="1.1" id="Layer_1" xmlns="http://www.w3.org/2000/svg" xmlns:xlink="http://www.w3.org/1999/xlink" x="0px" y="0px"
	 width="100%" viewBox="0 0 2152 731" enable-background="new 0 0 2152 731" xml:space="preserve">
<path fill="#062B6F" opacity="1.000000" stroke="none" 
	d="
M2153.000000,130.000000 
	C2153.000000,288.690765 2153.000000,447.381500 2152.532959,606.581299 
	C2121.338379,607.094421 2090.611084,607.073120 2059.883789,607.161743 
	C2057.900879,607.167419 2055.920410,608.021362 2053.558594,608.578613 
	C2052.137695,608.617676 2051.097656,608.558960 2049.864746,608.181458 
	C2048.068115,607.609680 2046.464355,607.136353 2044.860352,607.135437 
	C1980.209717,607.099182 1915.558960,607.095520 1850.908325,607.163818 
	C1849.250000,607.165588 1847.592407,608.018066 1845.535889,608.569458 
	C1843.779907,608.594788 1842.422363,608.524475 1840.863037,608.142761 
	C1838.719604,607.590149 1836.777832,607.140076 1834.835938,607.138428 
	C1793.507080,607.102417 1752.178223,607.121399 1710.849365,607.120728 
	C1481.040894,607.116821 1251.232300,607.107422 1021.423828,607.160828 
	C1019.595459,607.161255 1017.767273,608.004395 1015.506836,608.553589 
	C1012.702759,608.527283 1010.330750,608.401367 1007.750000,607.980469 
	C1004.431458,607.459290 1001.321777,607.035217 998.212036,607.034912 
	C665.808044,607.002686 333.404022,607.002258 1.000000,607.000000 
	C1.000000,448.309265 1.000000,289.618500 1.453085,130.489441 
	C91.725075,130.032379 181.543976,130.001648 271.362885,129.997742 
	C401.337463,129.992111 531.312073,129.998474 661.286621,130.013229 
	C836.585449,130.033112 1011.884277,130.088928 1187.183105,130.087479 
	C1429.803833,130.085464 1672.424438,130.044220 1915.045166,130.020401 
	C1994.363403,130.012604 2073.681641,130.006744 2153.000000,130.000000 
M348.668427,412.035522 
	C346.788696,411.690765 344.909332,411.047516 343.029144,411.045013 
	C298.556274,410.986084 254.083298,410.993774 209.610336,410.994202 
	C150.646194,410.994751 91.682022,410.983459 32.718014,411.074677 
	C30.820097,411.077606 28.923828,412.147888 26.380466,413.054199 
	C19.361334,414.763367 17.099241,421.825531 18.802132,438.219574 
	C20.217197,438.287018 21.681978,438.417664 23.146780,438.417908 
	C80.632576,438.427429 138.118378,438.433472 195.604172,438.421509 
	C240.592209,438.412140 285.580292,438.341095 330.568207,438.407349 
	C335.682465,438.414886 339.077026,436.490387 341.267273,431.869202 
	C343.546997,427.059326 346.283844,422.465118 348.534698,417.643066 
	C349.187714,416.244141 348.857574,414.386353 348.668427,412.035522 
M2128.690918,412.087372 
	C2126.986328,411.722015 2125.283447,411.046692 2123.577148,411.039215 
	C2106.581787,410.964691 2089.585449,411.003998 2072.589600,411.004333 
	C1984.443726,411.006104 1896.297852,410.993896 1808.152100,411.078705 
	C1806.043457,411.080719 1803.935913,412.158691 1801.349365,413.182678 
	C1801.562378,414.709351 1801.442261,416.386078 1802.049683,417.735107 
	C1804.031494,422.135101 1806.375488,426.370880 1808.399414,430.753265 
	C1811.005615,436.396484 1815.124146,438.605225 1821.476318,438.594238 
	C1922.970947,438.418274 2024.466064,438.428925 2125.960938,438.380951 
	C2128.228760,438.379883 2130.496826,438.190552 2133.094727,438.074249 
	C2133.094727,431.778778 2133.506836,425.942017 2132.907715,420.210907 
	C2132.638672,417.634674 2130.349365,415.269562 2128.690918,412.087372 
M1566.701660,261.335052 
	C1549.068481,261.202362 1531.435181,261.085541 1513.802246,260.923737 
	C1510.235840,260.891022 1510.967407,263.437927 1510.966309,265.482483 
	C1510.931885,331.279633 1510.914185,397.076813 1510.910645,462.873962 
	C1510.910522,464.477722 1511.099609,466.081451 1511.207520,467.795349 
	C1542.048340,467.795349 1572.420654,467.795349 1602.882935,467.795349 
	C1602.882935,455.556763 1602.882935,443.694824 1602.882935,431.094269 
	C1592.258911,431.094269 1582.138550,431.094269 1571.503052,430.534363 
	C1570.668701,428.439423 1569.111084,426.346313 1569.105713,424.249237 
	C1568.972046,372.067993 1569.020630,319.886292 1568.930908,267.704865 
	C1568.927734,265.810242 1567.852661,263.917450 1566.701660,261.335052 
M969.720642,466.330994 
	C969.790771,465.892456 969.860901,465.453888 970.492126,464.394958 
	C970.640137,463.922760 970.916870,463.450806 970.917725,462.978394 
	C970.959290,439.166290 971.004822,415.354095 970.915955,391.542358 
	C970.911560,390.364227 969.714294,389.190552 968.753967,387.303711 
	C966.418152,370.134888 954.297974,363.322388 937.716064,359.513000 
	C941.401794,358.496033 943.581970,357.881073 945.769409,357.293121 
	C961.332947,353.110107 968.089294,345.431702 968.955750,329.439056 
	C969.476868,319.818787 969.291138,310.102448 968.590515,300.489929 
	C967.885132,290.812561 964.399475,282.075195 957.099487,275.130463 
	C947.595825,266.089264 935.675232,262.606506 923.296997,262.161407 
	C895.671997,261.167969 868.006897,261.316559 840.360413,260.862366 
	C836.339172,260.796295 836.763733,263.199463 836.763977,265.762115 
	C836.769897,331.582184 836.756531,397.402252 836.764771,463.222321 
	C836.765015,464.800079 836.972534,466.377838 837.079712,467.903534 
	C855.816162,467.903534 873.924011,467.903534 892.852295,467.903534 
	C892.852295,436.273163 892.852295,404.919952 892.852295,373.619507 
	C896.651245,373.619507 899.653259,373.365784 902.598572,373.666595 
	C911.775879,374.603912 915.541870,378.582916 916.244019,387.779724 
	C916.383362,389.604340 916.403442,391.441406 916.404053,393.272736 
	C916.411682,416.268127 916.405518,439.263489 916.402954,462.258881 
	C916.402771,464.042725 916.402954,465.826599 916.402954,467.854645 
	C934.540100,467.854645 951.990540,467.854645 969.801331,467.773193 
	C969.908813,467.721863 970.114319,467.647430 970.108521,467.622833 
	C970.057434,467.406006 969.968750,467.198090 969.720642,466.330994 
M671.392944,424.691589 
	C673.790894,449.324127 688.504089,463.641937 711.258667,469.611206 
	C722.358643,472.523102 734.249146,473.009766 745.816956,473.331360 
	C752.830566,473.526337 760.108276,471.996429 766.927429,470.050415 
	C794.432678,462.201141 806.995300,447.021912 807.402954,418.492767 
	C808.136230,367.177032 807.769531,315.845856 807.967224,264.521515 
	C807.980530,261.079315 806.368469,260.859283 803.658813,260.874176 
	C787.994385,260.960358 772.324951,261.116180 756.666809,260.789581 
	C751.710754,260.686218 750.657288,262.301727 750.673035,266.976074 
	C750.847473,318.802124 750.836121,370.628906 750.755066,422.455322 
	C750.749451,426.060608 750.209106,429.788055 749.185608,433.241821 
	C747.357239,439.411987 743.515503,441.869324 737.719849,441.361420 
	C732.387939,440.894196 728.818176,437.598541 727.941406,431.686096 
	C727.308716,427.419373 726.987549,423.067017 726.983765,418.752472 
	C726.939087,367.925415 726.941589,317.098175 727.075745,266.271362 
	C727.086121,262.339417 726.363953,260.725494 721.945923,260.806335 
	C706.452576,261.089905 690.950928,260.898376 675.452942,260.983398 
	C673.890564,260.991974 672.331665,261.651489 670.059753,262.313660 
	C669.706970,263.686951 669.047119,265.059875 669.045654,266.433563 
	C668.992004,317.473572 668.982178,368.513641 669.083374,419.553497 
	C669.086304,421.035828 670.351013,422.515656 671.392944,424.691589 
M1332.227783,251.281891 
	C1324.225830,248.478745 1316.410645,244.406815 1308.174561,243.194061 
	C1297.913452,241.683151 1291.608276,236.302872 1286.103394,228.327988 
	C1281.046631,221.002625 1280.255737,220.951782 1275.291138,228.582123 
	C1269.907349,236.856537 1263.029053,241.071762 1253.213135,243.401917 
	C1189.895386,258.432495 1151.434448,314.663788 1156.129761,374.511597 
	C1159.530518,417.859772 1180.005493,451.609650 1217.322266,474.383972 
	C1277.329468,511.006104 1351.224609,487.954254 1384.077148,437.649017 
	C1412.327515,394.390717 1413.270020,349.206512 1389.629028,303.591980 
	C1377.140503,279.495575 1357.542114,262.690186 1332.227783,251.281891 
M1134.207764,411.492645 
	C1134.210327,404.661957 1134.221436,397.831238 1134.213867,391.000549 
	C1134.185181,364.844055 1134.276367,338.686584 1134.081055,312.531311 
	C1133.897949,288.019501 1120.950195,269.259552 1098.331421,261.236145 
	C1081.032593,255.099884 1063.137085,254.171326 1045.128540,257.546478 
	C1014.973267,263.198181 996.062927,283.989502 996.717834,315.832123 
	C997.211060,339.810455 996.655457,363.809418 996.666626,387.799133 
	C996.671814,398.957825 996.391541,410.152588 997.160767,421.267303 
	C998.628296,442.470337 1008.657959,458.147034 1028.730713,466.505585 
	C1047.940186,474.504608 1067.794434,475.658630 1087.997803,471.309906 
	C1099.727661,468.785065 1110.447876,464.097748 1119.157959,455.470459 
	C1131.174683,443.568054 1134.563965,428.695801 1134.207764,411.492645 
M605.691650,408.500275 
	C605.666870,400.166870 605.765747,391.830444 605.560120,383.501495 
	C605.470032,379.852051 606.695129,378.495789 610.441101,378.569794 
	C619.936890,378.757446 629.442871,378.447388 638.937561,378.660278 
	C642.502380,378.740204 643.633972,377.500000 643.553406,374.086273 
	C643.388184,367.090210 643.469604,360.087708 643.493958,353.088013 
	C643.528381,343.225708 643.545593,343.239166 633.879578,343.257782 
	C624.612366,343.275635 615.345154,343.261658 605.691040,343.261658 
	C605.691040,328.110809 605.622437,313.648529 605.852051,299.191010 
	C605.866638,298.270203 608.175293,296.639709 609.450500,296.605743 
	C617.944092,296.379333 626.447876,296.585022 634.946350,296.481232 
	C644.750549,296.361511 643.546509,298.146362 643.648193,287.708740 
	C643.733704,278.929535 643.665771,270.148773 643.665771,260.940582 
	C641.370972,260.940582 639.736938,260.941498 638.102905,260.940460 
	C610.936523,260.922852 583.769409,260.999146 556.604492,260.790985 
	C552.274170,260.757812 550.946838,261.829285 550.956238,266.316956 
	C551.093140,331.648895 551.093079,396.981323 550.925659,462.313171 
	C550.913025,467.244415 552.494141,468.416321 557.157898,468.376465 
	C586.988403,468.121368 616.821106,468.137238 646.653076,468.035492 
	C647.422424,468.032867 648.190552,467.703339 649.470093,467.408600 
	C649.470093,456.984741 649.315796,446.667450 649.549988,436.359039 
	C649.637207,432.522919 648.683777,431.110138 644.578125,431.214417 
	C633.252014,431.502167 621.914185,431.339539 610.580994,431.329926 
	C608.999268,431.328583 607.417664,431.186005 605.693970,431.101868 
	C605.693970,423.470551 605.693970,416.485321 605.691650,408.500275 
M1764.500000,344.992523 
	C1734.848022,344.992523 1705.195923,344.992523 1674.341553,344.992523 
	C1678.744995,354.297546 1682.603271,361.840332 1685.900391,369.620880 
	C1688.313232,375.314392 1692.052734,377.539215 1698.237427,377.523621 
	C1747.390869,377.399719 1796.544922,377.533875 1845.698730,377.531250 
	C1940.172485,377.526154 2034.646118,377.484772 2129.119873,377.438416 
	C2130.370605,377.437805 2131.621338,377.174744 2133.197998,376.997498 
	C2133.197998,367.649597 2133.014404,358.662262 2133.283691,349.688507 
	C2133.399414,345.828461 2132.033691,344.945953 2128.406494,344.974823 
	C2110.912109,345.114075 2093.415527,344.968445 2075.919922,344.968933 
	C1972.446655,344.971832 1868.973267,344.987244 1764.500000,344.992523 
M208.499084,377.524780 
	C246.649796,377.520996 284.800507,377.518982 322.951233,377.513062 
	C365.267090,377.506470 407.583069,377.440643 449.898560,377.560242 
	C455.011719,377.574707 458.554474,375.804169 460.836243,371.325165 
	C464.387238,364.354675 467.983887,357.406952 471.481537,350.409821 
	C473.827545,345.716614 473.367432,345.015533 468.053070,345.011230 
	C423.069611,344.974823 378.086121,344.930878 333.102661,344.937408 
	C273.124298,344.946106 213.145920,345.006195 153.167542,345.028534 
	C114.348351,345.042999 75.529137,345.020447 36.709942,345.036407 
	C29.233915,345.039490 22.642641,347.860199 20.483347,355.089294 
	C18.415211,362.013153 18.547316,369.594208 17.639137,377.526428 
	C81.949127,377.526428 144.724106,377.526428 208.499084,377.524780 
M1424.293335,339.499756 
	C1424.284424,380.322174 1424.339233,421.144806 1424.178101,461.966644 
	C1424.159912,466.572327 1425.260254,468.375519 1430.204102,468.284119 
	C1446.027710,467.991638 1461.859619,468.155121 1477.688354,468.114746 
	C1478.626587,468.112335 1479.564453,467.865570 1480.650879,467.711487 
	C1480.757080,466.612122 1480.902710,465.807861 1480.902832,465.003601 
	C1480.915771,398.354065 1480.896240,331.704468 1480.980957,265.055054 
	C1480.985229,261.685486 1479.805908,260.812744 1476.615234,260.840759 
	C1461.286743,260.975525 1445.952271,261.114563 1430.629395,260.795074 
	C1425.711548,260.692535 1424.080444,261.723450 1424.151245,267.019531 
	C1424.469727,290.842621 1424.290283,314.672394 1424.293335,339.499756 
z"/>
<path fill="#FEFEFE" opacity="1.000000" stroke="none" 
	d="
M2153.000000,129.546371 
	C2073.681641,130.006744 1994.363403,130.012604 1915.045166,130.020401 
	C1672.424438,130.044220 1429.803833,130.085464 1187.183105,130.087479 
	C1011.884277,130.088928 836.585449,130.033112 661.286621,130.013229 
	C531.312073,129.998474 401.337463,129.992111 271.362885,129.997742 
	C181.543976,130.001648 91.725075,130.032379 1.453085,130.025574 
	C1.000000,87.007263 1.000000,44.014534 1.000000,1.057237 
	C718.333313,1.057237 1435.666626,1.057237 2153.000000,1.057237 
	C2153.000000,43.773895 2153.000000,86.433319 2153.000000,129.546371 
z"/>
<path fill="#FEFEFE" opacity="1.000000" stroke="none" 
	d="
M1841.064819,608.454163 
	C1842.422363,608.524475 1843.779907,608.594788 1845.987061,608.720398 
	C1903.438354,608.795715 1960.040039,608.834229 2016.641724,608.820251 
	C2027.780273,608.817566 2038.918823,608.612183 2050.057373,608.500244 
	C2051.097656,608.558960 2052.137695,608.617676 2054.011719,608.720581 
	C2058.166504,608.804260 2061.487793,608.873535 2064.809082,608.878784 
	C2094.206055,608.925659 2123.603027,608.961182 2153.000000,609.000000 
	C2153.000000,649.992859 2153.000000,690.985779 2153.000000,731.947388 
	C1435.666626,731.947388 718.333313,731.947388 1.000000,731.947388 
	C1.000000,691.235168 1.000000,650.575562 1.269028,609.351440 
	C1.691150,608.669617 1.844244,608.552307 2.456901,608.530396 
	C17.576860,608.674194 32.237270,608.769043 46.897648,608.763916 
	C182.176544,608.716431 317.455414,608.633484 452.734314,608.599121 
	C531.368225,608.579163 610.002075,608.629761 688.635986,608.647217 
	C787.096436,608.669128 885.556824,608.699524 984.017273,608.691284 
	C991.997742,608.690613 999.978271,608.420471 1007.958740,608.275513 
	C1010.330750,608.401367 1012.702759,608.527283 1015.958191,608.701050 
	C1056.663330,608.815735 1096.485107,608.944946 1136.306885,608.938110 
	C1281.268433,608.913269 1426.229980,608.825439 1571.191528,608.796509 
	C1654.335083,608.779968 1737.478516,608.840820 1820.622070,608.834778 
	C1827.436279,608.834290 1834.250610,608.586853 1841.064819,608.454163 
z"/>
<path fill="#00195F" opacity="1.000000" stroke="none" 
	d="
M1007.750000,607.980469 
	C999.978271,608.420471 991.997742,608.690613 984.017273,608.691284 
	C885.556824,608.699524 787.096436,608.669128 688.635986,608.647217 
	C610.002075,608.629761 531.368225,608.579163 452.734314,608.599121 
	C317.455414,608.633484 182.176544,608.716431 46.897648,608.763916 
	C32.237270,608.769043 17.576860,608.674194 2.340890,608.372681 
	C1.522855,607.998718 1.267750,607.958862 1.000000,608.000000 
	C1.000000,608.000000 1.000000,607.500000 1.000000,607.250000 
	C333.404022,607.002258 665.808044,607.002686 998.212036,607.034912 
	C1001.321777,607.035217 1004.431458,607.459290 1007.750000,607.980469 
z"/>
<path fill="#2C447F" opacity="1.000000" stroke="none" 
	d="
M2153.000000,608.666687 
	C2123.603027,608.961182 2094.206055,608.925659 2064.809082,608.878784 
	C2061.487793,608.873535 2058.166504,608.804260 2054.392090,608.622681 
	C2055.920410,608.021362 2057.900879,607.167419 2059.883789,607.161743 
	C2090.611084,607.073120 2121.338379,607.094421 2152.532959,607.045166 
	C2153.000000,607.444458 2153.000000,607.888916 2153.000000,608.666687 
z"/>
<path fill="#2C447F" opacity="1.000000" stroke="none" 
	d="
M1.000000,608.250000 
	C1.267750,607.958862 1.522855,607.998718 1.881327,608.277222 
	C1.844244,608.552307 1.691150,608.669617 1.269028,608.893494 
	C1.000000,609.000000 1.000000,608.500000 1.000000,608.250000 
z"/>
<path fill="#F9FAFB" opacity="1.000000" stroke="none" 
	d="
M1332.565430,251.450134 
	C1357.542114,262.690186 1377.140503,279.495575 1389.629028,303.591980 
	C1413.270020,349.206512 1412.327515,394.390717 1384.077148,437.649017 
	C1351.224609,487.954254 1277.329468,511.006104 1217.322266,474.383972 
	C1180.005493,451.609650 1159.530518,417.859772 1156.129761,374.511597 
	C1151.434448,314.663788 1189.895386,258.432495 1253.213135,243.401917 
	C1263.029053,241.071762 1269.907349,236.856537 1275.291138,228.582123 
	C1280.255737,220.951782 1281.046631,221.002625 1286.103394,228.327988 
	C1291.608276,236.302872 1297.913452,241.683151 1308.174561,243.194061 
	C1316.410645,244.406815 1324.225830,248.478745 1332.565430,251.450134 
M1228.197144,345.775116 
	C1225.911621,352.375824 1223.065674,358.841400 1221.435547,365.600189 
	C1213.567871,398.222015 1230.401733,430.478577 1261.734009,442.469849 
	C1304.619019,458.882507 1346.615356,416.728455 1342.272583,378.583130 
	C1341.072266,368.040375 1337.588379,357.439331 1333.390503,347.618103 
	C1322.511108,322.165619 1305.852417,300.199341 1289.275635,278.268280 
	C1286.536133,274.644073 1283.624023,271.150482 1280.583496,267.335144 
	C1277.612305,271.152039 1275.128174,274.268738 1272.723022,277.445221 
	C1256.424194,298.970093 1240.181030,320.532990 1228.197144,345.775116 
M1372.454712,301.080719 
	C1358.527344,280.631531 1339.943848,266.499878 1315.786743,259.765594 
	C1316.454712,261.234833 1317.750000,262.004822 1318.957520,262.893890 
	C1326.595825,268.517487 1334.591675,273.727448 1341.775269,279.884094 
	C1374.877808,308.254333 1389.764648,343.849274 1380.857422,387.172516 
	C1371.040894,434.917847 1333.356323,467.263458 1285.031616,469.737946 
	C1253.473755,471.353912 1226.127197,460.168121 1205.708374,435.814392 
	C1178.124023,402.914368 1171.051025,365.527100 1186.410645,325.019470 
	C1195.200439,301.838379 1211.685547,284.571869 1232.095337,270.844482 
	C1236.636719,267.790039 1240.757568,264.110260 1245.071899,260.718353 
	C1234.293579,262.259369 1219.352783,270.426819 1208.590942,279.747925 
	C1144.143066,335.567932 1162.918579,441.732788 1242.586182,471.972137 
	C1286.038452,488.465240 1336.770874,474.743713 1365.940552,438.608795 
	C1398.256714,398.576080 1400.915771,346.058258 1372.454712,301.080719 
M1280.596680,236.220734 
	C1277.291260,240.379333 1273.858154,244.443451 1270.702393,248.712631 
	C1255.567383,269.187683 1239.805786,289.246979 1225.623047,310.364838 
	C1212.127197,330.459900 1205.401855,352.999664 1208.034546,377.637238 
	C1208.245117,379.608093 1208.710938,381.551727 1209.058228,383.507996 
	C1210.434082,366.290283 1216.616699,350.881165 1224.491943,336.102753 
	C1239.604248,307.743713 1259.673828,282.818634 1279.461426,257.715668 
	C1279.738281,257.364532 1280.242676,257.192810 1280.858276,256.797821 
	C1281.985596,258.042694 1283.170776,259.191223 1284.172119,260.482361 
	C1292.434692,271.135529 1300.985474,281.583923 1308.838379,292.532166 
	C1328.581177,320.056610 1347.963379,347.829712 1351.886597,384.048279 
	C1352.467041,381.853394 1352.890991,380.662994 1353.089966,379.436127 
	C1356.081909,361.005188 1351.878174,343.685638 1344.506836,327.001892 
	C1334.934448,305.336334 1320.340820,286.883392 1306.077393,268.254639 
	C1297.887573,257.558105 1289.557007,246.969193 1280.596680,236.220734 
z"/>
<path fill="#FDFDFD" opacity="1.000000" stroke="none" 
	d="
M1134.209473,411.990356 
	C1134.563965,428.695801 1131.174683,443.568054 1119.157959,455.470459 
	C1110.447876,464.097748 1099.727661,468.785065 1087.997803,471.309906 
	C1067.794434,475.658630 1047.940186,474.504608 1028.730713,466.505585 
	C1008.657959,458.147034 998.628296,442.470337 997.160767,421.267303 
	C996.391541,410.152588 996.671814,398.957825 996.666626,387.799133 
	C996.655457,363.809418 997.211060,339.810455 996.717834,315.832123 
	C996.062927,283.989502 1014.973267,263.198181 1045.128540,257.546478 
	C1063.137085,254.171326 1081.032593,255.099884 1098.331421,261.236145 
	C1120.950195,269.259552 1133.897949,288.019501 1134.081055,312.531311 
	C1134.276367,338.686584 1134.185181,364.844055 1134.213867,391.000549 
	C1134.221436,397.831238 1134.210327,404.661957 1134.209473,411.990356 
M1053.851074,330.499939 
	C1053.865723,359.975464 1053.834717,389.451141 1053.942383,418.926331 
	C1053.959351,423.564972 1054.265259,428.259308 1055.046265,432.823730 
	C1055.982666,438.296051 1059.722534,441.051727 1065.265747,441.198456 
	C1070.893921,441.347412 1074.472290,438.907654 1075.805908,433.303467 
	C1076.645142,429.776825 1077.058838,426.066772 1077.068481,422.437408 
	C1077.171021,383.303467 1077.190674,344.169159 1077.112061,305.035156 
	C1077.104858,301.416321 1076.679688,297.684265 1075.714111,294.208771 
	C1074.360596,289.335663 1070.727051,286.962097 1065.580566,286.999786 
	C1058.590210,287.050964 1054.499512,291.482605 1054.123413,300.531738 
	C1053.722778,310.174957 1053.916138,319.842834 1053.851074,330.499939 
z"/>
<path fill="#FCFDFD" opacity="1.000000" stroke="none" 
	d="
M670.771179,262.008911 
	C672.331665,261.651489 673.890564,260.991974 675.452942,260.983398 
	C690.950928,260.898376 706.452576,261.089905 721.945923,260.806335 
	C726.363953,260.725494 727.086121,262.339417 727.075745,266.271362 
	C726.941589,317.098175 726.939087,367.925415 726.983765,418.752472 
	C726.987549,423.067017 727.308716,427.419373 727.941406,431.686096 
	C728.818176,437.598541 732.387939,440.894196 737.719849,441.361420 
	C743.515503,441.869324 747.357239,439.411987 749.185608,433.241821 
	C750.209106,429.788055 750.749451,426.060608 750.755066,422.455322 
	C750.836121,370.628906 750.847473,318.802124 750.673035,266.976074 
	C750.657288,262.301727 751.710754,260.686218 756.666809,260.789581 
	C772.324951,261.116180 787.994385,260.960358 803.658813,260.874176 
	C806.368469,260.859283 807.980530,261.079315 807.967224,264.521515 
	C807.769531,315.845856 808.136230,367.177032 807.402954,418.492767 
	C806.995300,447.021912 794.432678,462.201141 766.927429,470.050415 
	C760.108276,471.996429 752.830566,473.526337 745.816956,473.331360 
	C734.249146,473.009766 722.358643,472.523102 711.258667,469.611206 
	C688.504089,463.641937 673.790894,449.324127 671.284851,423.880859 
	C671.040710,406.949432 670.811951,390.828918 670.787231,374.708069 
	C670.729675,337.141754 670.770325,299.575317 670.771179,262.008911 
z"/>
<path fill="#FCFDFD" opacity="1.000000" stroke="none" 
	d="
M969.440979,467.854645 
	C951.990540,467.854645 934.540100,467.854645 916.402954,467.854645 
	C916.402954,465.826599 916.402771,464.042725 916.402954,462.258881 
	C916.405518,439.263489 916.411682,416.268127 916.404053,393.272736 
	C916.403442,391.441406 916.383362,389.604340 916.244019,387.779724 
	C915.541870,378.582916 911.775879,374.603912 902.598572,373.666595 
	C899.653259,373.365784 896.651245,373.619507 892.852295,373.619507 
	C892.852295,404.919952 892.852295,436.273163 892.852295,467.903534 
	C873.924011,467.903534 855.816162,467.903534 837.079712,467.903534 
	C836.972534,466.377838 836.765015,464.800079 836.764771,463.222321 
	C836.756531,397.402252 836.769897,331.582184 836.763977,265.762115 
	C836.763733,263.199463 836.339172,260.796295 840.360413,260.862366 
	C868.006897,261.316559 895.671997,261.167969 923.296997,262.161407 
	C935.675232,262.606506 947.595825,266.089264 957.099487,275.130463 
	C964.399475,282.075195 967.885132,290.812561 968.590515,300.489929 
	C969.291138,310.102448 969.476868,319.818787 968.955750,329.439056 
	C968.089294,345.431702 961.332947,353.110107 945.769409,357.293121 
	C943.581970,357.881073 941.401794,358.496033 937.716064,359.513000 
	C954.297974,363.322388 966.418152,370.134888 968.852783,388.124390 
	C969.083313,392.419739 969.297974,395.893555 969.333130,399.369232 
	C969.554565,421.251068 969.736206,443.133270 969.930969,465.015350 
	C969.860901,465.453888 969.790771,465.892456 969.642090,466.849365 
	C969.522705,467.530029 969.481812,467.692322 969.440979,467.854645 
M892.773315,308.501404 
	C892.773315,319.769562 892.773315,331.037720 892.773315,342.725830 
	C896.826965,342.725830 900.293518,342.882477 903.741455,342.695160 
	C912.546204,342.216797 916.037170,338.755402 916.350159,329.914825 
	C916.579895,323.427216 916.493713,316.924011 916.396179,310.430054 
	C916.156799,294.486969 912.669067,291.100830 896.802551,291.212311 
	C895.675476,291.220276 894.549011,291.307770 892.774902,291.387329 
	C892.774902,296.945587 892.774902,302.223907 892.773315,308.501404 
z"/>
<path fill="#FCFCFD" opacity="1.000000" stroke="none" 
	d="
M605.692810,409.000183 
	C605.693970,416.485321 605.693970,423.470551 605.693970,431.101868 
	C607.417664,431.186005 608.999268,431.328583 610.580994,431.329926 
	C621.914185,431.339539 633.252014,431.502167 644.578125,431.214417 
	C648.683777,431.110138 649.637207,432.522919 649.549988,436.359039 
	C649.315796,446.667450 649.470093,456.984741 649.470093,467.408600 
	C648.190552,467.703339 647.422424,468.032867 646.653076,468.035492 
	C616.821106,468.137238 586.988403,468.121368 557.157898,468.376465 
	C552.494141,468.416321 550.913025,467.244415 550.925659,462.313171 
	C551.093079,396.981323 551.093140,331.648895 550.956238,266.316956 
	C550.946838,261.829285 552.274170,260.757812 556.604492,260.790985 
	C583.769409,260.999146 610.936523,260.922852 638.102905,260.940460 
	C639.736938,260.941498 641.370972,260.940582 643.665771,260.940582 
	C643.665771,270.148773 643.733704,278.929535 643.648193,287.708740 
	C643.546509,298.146362 644.750549,296.361511 634.946350,296.481232 
	C626.447876,296.585022 617.944092,296.379333 609.450500,296.605743 
	C608.175293,296.639709 605.866638,298.270203 605.852051,299.191010 
	C605.622437,313.648529 605.691040,328.110809 605.691040,343.261658 
	C615.345154,343.261658 624.612366,343.275635 633.879578,343.257782 
	C643.545593,343.239166 643.528381,343.225708 643.493958,353.088013 
	C643.469604,360.087708 643.388184,367.090210 643.553406,374.086273 
	C643.633972,377.500000 642.502380,378.740204 638.937561,378.660278 
	C629.442871,378.447388 619.936890,378.757446 610.441101,378.569794 
	C606.695129,378.495789 605.470032,379.852051 605.560120,383.501495 
	C605.765747,391.830444 605.666870,400.166870 605.692810,409.000183 
z"/>
<path fill="#FAFAFC" opacity="1.000000" stroke="none" 
	d="
M1765.000000,344.995483 
	C1868.973267,344.987244 1972.446655,344.971832 2075.919922,344.968933 
	C2093.415527,344.968445 2110.912109,345.114075 2128.406494,344.974823 
	C2132.033691,344.945953 2133.399414,345.828461 2133.283691,349.688507 
	C2133.014404,358.662262 2133.197998,367.649597 2133.197998,376.997498 
	C2131.621338,377.174744 2130.370605,377.437805 2129.119873,377.438416 
	C2034.646118,377.484772 1940.172485,377.526154 1845.698730,377.531250 
	C1796.544922,377.533875 1747.390869,377.399719 1698.237427,377.523621 
	C1692.052734,377.539215 1688.313232,375.314392 1685.900391,369.620880 
	C1682.603271,361.840332 1678.744995,354.297546 1674.341553,344.992523 
	C1705.195923,344.992523 1734.848022,344.992523 1765.000000,344.995483 
z"/>
<path fill="#FAFBFC" opacity="1.000000" stroke="none" 
	d="
M207.999084,377.525604 
	C144.724106,377.526428 81.949127,377.526428 17.639137,377.526428 
	C18.547316,369.594208 18.415211,362.013153 20.483347,355.089294 
	C22.642641,347.860199 29.233915,345.039490 36.709942,345.036407 
	C75.529137,345.020447 114.348351,345.042999 153.167542,345.028534 
	C213.145920,345.006195 273.124298,344.946106 333.102661,344.937408 
	C378.086121,344.930878 423.069611,344.974823 468.053070,345.011230 
	C473.367432,345.015533 473.827545,345.716614 471.481537,350.409821 
	C467.983887,357.406952 464.387238,364.354675 460.836243,371.325165 
	C458.554474,375.804169 455.011719,377.574707 449.898560,377.560242 
	C407.583069,377.440643 365.267090,377.506470 322.951233,377.513062 
	C284.800507,377.518982 246.649796,377.520996 207.999084,377.525604 
z"/>
<path fill="#FDFDFD" opacity="1.000000" stroke="none" 
	d="
M1572.018311,431.094238 
	C1582.138550,431.094269 1592.258911,431.094269 1602.882935,431.094269 
	C1602.882935,443.694824 1602.882935,455.556763 1602.882935,467.795349 
	C1572.420654,467.795349 1542.048340,467.795349 1511.207520,467.795349 
	C1511.099609,466.081451 1510.910522,464.477722 1510.910645,462.873962 
	C1510.914185,397.076813 1510.931885,331.279633 1510.966309,265.482483 
	C1510.967407,263.437927 1510.235840,260.891022 1513.802246,260.923737 
	C1531.435181,261.085541 1549.068481,261.202362 1566.926025,262.142395 
	C1567.150513,318.887054 1567.150513,374.824310 1567.150513,431.318634 
	C1569.172119,431.225464 1570.595215,431.159851 1572.018311,431.094238 
z"/>
<path fill="#FBFCFD" opacity="1.000000" stroke="none" 
	d="
M1424.291748,338.999756 
	C1424.290283,314.672394 1424.469727,290.842621 1424.151245,267.019531 
	C1424.080444,261.723450 1425.711548,260.692535 1430.629395,260.795074 
	C1445.952271,261.114563 1461.286743,260.975525 1476.615234,260.840759 
	C1479.805908,260.812744 1480.985229,261.685486 1480.980957,265.055054 
	C1480.896240,331.704468 1480.915771,398.354065 1480.902832,465.003601 
	C1480.902710,465.807861 1480.757080,466.612122 1480.650879,467.711487 
	C1479.564453,467.865570 1478.626587,468.112335 1477.688354,468.114746 
	C1461.859619,468.155121 1446.027710,467.991638 1430.204102,468.284119 
	C1425.260254,468.375519 1424.159912,466.572327 1424.178101,461.966644 
	C1424.339233,421.144806 1424.284424,380.322174 1424.291748,338.999756 
z"/>
<path fill="#FCFDFD" opacity="1.000000" stroke="none" 
	d="
M2128.976807,412.808655 
	C2130.349365,415.269562 2132.638672,417.634674 2132.907715,420.210907 
	C2133.506836,425.942017 2133.094727,431.778778 2133.094727,438.074249 
	C2130.496826,438.190552 2128.228760,438.379883 2125.960938,438.380951 
	C2024.466064,438.428925 1922.970947,438.418274 1821.476318,438.594238 
	C1815.124146,438.605225 1811.005615,436.396484 1808.399414,430.753265 
	C1806.375488,426.370880 1804.031494,422.135101 1802.049683,417.735107 
	C1801.442261,416.386078 1801.562378,414.709351 1802.033936,412.992065 
	C1911.471313,412.803864 2020.224121,412.806244 2128.976807,412.808655 
z"/>
<path fill="#FCFDFD" opacity="1.000000" stroke="none" 
	d="
M348.978088,412.738892 
	C348.857574,414.386353 349.187714,416.244141 348.534698,417.643066 
	C346.283844,422.465118 343.546997,427.059326 341.267273,431.869202 
	C339.077026,436.490387 335.682465,438.414886 330.568207,438.407349 
	C285.580292,438.341095 240.592209,438.412140 195.604172,438.421509 
	C138.118378,438.433472 80.632576,438.427429 23.146780,438.417908 
	C21.681978,438.417664 20.217197,438.287018 18.802132,438.219574 
	C17.099241,421.825531 19.361334,414.763367 27.167568,412.937866 
	C87.699799,412.835754 147.444931,412.870209 207.190063,412.857788 
	C254.452744,412.847992 301.715424,412.780670 348.978088,412.738892 
z"/>
<path fill="#2C447F" opacity="1.000000" stroke="none" 
	d="
M1840.863037,608.142761 
	C1834.250610,608.586853 1827.436279,608.834290 1820.622070,608.834778 
	C1737.478516,608.840820 1654.335083,608.779968 1571.191528,608.796509 
	C1426.229980,608.825439 1281.268433,608.913269 1136.306885,608.938110 
	C1096.485107,608.944946 1056.663330,608.815735 1016.390259,608.601501 
	C1017.767273,608.004395 1019.595459,607.161255 1021.423828,607.160828 
	C1251.232300,607.107422 1481.040894,607.116821 1710.849365,607.120728 
	C1752.178223,607.121399 1793.507080,607.102417 1834.835938,607.138428 
	C1836.777832,607.140076 1838.719604,607.590149 1840.863037,608.142761 
z"/>
<path fill="#00195F" opacity="1.000000" stroke="none" 
	d="
M2128.833984,412.447998 
	C2020.224121,412.806244 1911.471313,412.803864 1802.273193,412.768188 
	C1803.935913,412.158691 1806.043457,411.080719 1808.152100,411.078705 
	C1896.297852,410.993896 1984.443726,411.006104 2072.589600,411.004333 
	C2089.585449,411.003998 2106.581787,410.964691 2123.577148,411.039215 
	C2125.283447,411.046692 2126.986328,411.722015 2128.833984,412.447998 
z"/>
<path fill="#00195F" opacity="1.000000" stroke="none" 
	d="
M348.823242,412.387207 
	C301.715424,412.780670 254.452744,412.847992 207.190063,412.857788 
	C147.444931,412.870209 87.699799,412.835754 27.490730,412.771057 
	C28.923828,412.147888 30.820097,411.077606 32.718014,411.074677 
	C91.682022,410.983459 150.646194,410.994751 209.610336,410.994202 
	C254.083298,410.993774 298.556274,410.986084 343.029144,411.045013 
	C344.909332,411.047516 346.788696,411.690765 348.823242,412.387207 
z"/>
<path fill="#2C447F" opacity="1.000000" stroke="none" 
	d="
M2049.864746,608.181519 
	C2038.918823,608.612183 2027.780273,608.817566 2016.641724,608.820251 
	C1960.040039,608.834229 1903.438354,608.795715 1846.385498,608.624695 
	C1847.592407,608.018066 1849.250000,607.165588 1850.908325,607.163818 
	C1915.558960,607.095520 1980.209717,607.099182 2044.860352,607.135437 
	C2046.464355,607.136353 2048.068115,607.609680 2049.864746,608.181519 
z"/>
<path fill="#00195F" opacity="1.000000" stroke="none" 
	d="
M1571.760742,430.814301 
	C1570.595215,431.159851 1569.172119,431.225464 1567.150513,431.318634 
	C1567.150513,374.824310 1567.150513,318.887054 1567.213867,262.486786 
	C1567.852661,263.917450 1568.927734,265.810242 1568.930908,267.704865 
	C1569.020630,319.886292 1568.972046,372.067993 1569.105713,424.249237 
	C1569.111084,426.346313 1570.668701,428.439423 1571.760742,430.814301 
z"/>
<path fill="#00195F" opacity="1.000000" stroke="none" 
	d="
M670.415466,262.161285 
	C670.770325,299.575317 670.729675,337.141754 670.787231,374.708069 
	C670.811951,390.828918 671.040710,406.949432 671.102051,423.533386 
	C670.351013,422.515656 669.086304,421.035828 669.083374,419.553497 
	C668.982178,368.513641 668.992004,317.473572 669.045654,266.433563 
	C669.047119,265.059875 669.706970,263.686951 670.415466,262.161285 
z"/>
<path fill="#00195F" opacity="1.000000" stroke="none" 
	d="
M970.211548,464.705139 
	C969.736206,443.133270 969.554565,421.251068 969.333130,399.369232 
	C969.297974,395.893555 969.083313,392.419739 969.012085,388.479919 
	C969.714294,389.190552 970.911560,390.364227 970.915955,391.542358 
	C971.004822,415.354095 970.959290,439.166290 970.917725,462.978394 
	C970.916870,463.450806 970.640137,463.922760 970.211548,464.705139 
z"/>
<path fill="#00195F" opacity="1.000000" stroke="none" 
	d="
M969.621155,467.813904 
	C969.481812,467.692322 969.522705,467.530029 969.727356,467.177612 
	C969.968750,467.198090 970.057434,467.406006 970.108521,467.622833 
	C970.114319,467.647430 969.908813,467.721863 969.621155,467.813904 
z"/>
<path fill="#062B6F" opacity="1.000000" stroke="none" 
	d="
M1228.363770,345.434937 
	C1240.181030,320.532990 1256.424194,298.970093 1272.723022,277.445221 
	C1275.128174,274.268738 1277.612305,271.152039 1280.583496,267.335144 
	C1283.624023,271.150482 1286.536133,274.644073 1289.275635,278.268280 
	C1305.852417,300.199341 1322.511108,322.165619 1333.390503,347.618103 
	C1337.588379,357.439331 1341.072266,368.040375 1342.272583,378.583130 
	C1346.615356,416.728455 1304.619019,458.882507 1261.734009,442.469849 
	C1230.401733,430.478577 1213.567871,398.222015 1221.435547,365.600189 
	C1223.065674,358.841400 1225.911621,352.375824 1228.363770,345.434937 
z"/>
<path fill="#0E3276" opacity="1.000000" stroke="none" 
	d="
M1372.664307,301.376038 
	C1400.915771,346.058258 1398.256714,398.576080 1365.940552,438.608795 
	C1336.770874,474.743713 1286.038452,488.465240 1242.586182,471.972137 
	C1162.918579,441.732788 1144.143066,335.567932 1208.590942,279.747925 
	C1219.352783,270.426819 1234.293579,262.259369 1245.071899,260.718353 
	C1240.757568,264.110260 1236.636719,267.790039 1232.095337,270.844482 
	C1211.685547,284.571869 1195.200439,301.838379 1186.410645,325.019470 
	C1171.051025,365.527100 1178.124023,402.914368 1205.708374,435.814392 
	C1226.127197,460.168121 1253.473755,471.353912 1285.031616,469.737946 
	C1333.356323,467.263458 1371.040894,434.917847 1380.857422,387.172516 
	C1389.764648,343.849274 1374.877808,308.254333 1341.775269,279.884094 
	C1334.591675,273.727448 1326.595825,268.517487 1318.957520,262.893890 
	C1317.750000,262.004822 1316.454712,261.234833 1315.786743,259.765594 
	C1339.943848,266.499878 1358.527344,280.631531 1372.664307,301.376038 
z"/>
<path fill="#0B2F72" opacity="1.000000" stroke="none" 
	d="
M1280.943359,236.276276 
	C1289.557007,246.969193 1297.887573,257.558105 1306.077393,268.254639 
	C1320.340820,286.883392 1334.934448,305.336334 1344.506836,327.001892 
	C1351.878174,343.685638 1356.081909,361.005188 1353.089966,379.436127 
	C1352.890991,380.662994 1352.467041,381.853394 1351.886597,384.048279 
	C1347.963379,347.829712 1328.581177,320.056610 1308.838379,292.532166 
	C1300.985474,281.583923 1292.434692,271.135529 1284.172119,260.482361 
	C1283.170776,259.191223 1281.985596,258.042694 1280.858276,256.797821 
	C1280.242676,257.192810 1279.738281,257.364532 1279.461426,257.715668 
	C1259.673828,282.818634 1239.604248,307.743713 1224.491943,336.102753 
	C1216.616699,350.881165 1210.434082,366.290283 1209.058228,383.507996 
	C1208.710938,381.551727 1208.245117,379.608093 1208.034546,377.637238 
	C1205.401855,352.999664 1212.127197,330.459900 1225.623047,310.364838 
	C1239.805786,289.246979 1255.567383,269.187683 1270.702393,248.712631 
	C1273.858154,244.443451 1277.291260,240.379333 1280.943359,236.276276 
z"/>
<path fill="#05296C" opacity="1.000000" stroke="none" 
	d="
M1053.850586,329.999939 
	C1053.916138,319.842834 1053.722778,310.174957 1054.123413,300.531738 
	C1054.499512,291.482605 1058.590210,287.050964 1065.580566,286.999786 
	C1070.727051,286.962097 1074.360596,289.335663 1075.714111,294.208771 
	C1076.679688,297.684265 1077.104858,301.416321 1077.112061,305.035156 
	C1077.190674,344.169159 1077.171021,383.303467 1077.068481,422.437408 
	C1077.058838,426.066772 1076.645142,429.776825 1075.805908,433.303467 
	C1074.472290,438.907654 1070.893921,441.347412 1065.265747,441.198456 
	C1059.722534,441.051727 1055.982666,438.296051 1055.046265,432.823730 
	C1054.265259,428.259308 1053.959351,423.564972 1053.942383,418.926331 
	C1053.834717,389.451141 1053.865723,359.975464 1053.850586,329.999939 
z"/>
<path fill="#082B70" opacity="1.000000" stroke="none" 
	d="
M892.774109,308.001801 
	C892.774902,302.223907 892.774902,296.945587 892.774902,291.387329 
	C894.549011,291.307770 895.675476,291.220276 896.802551,291.212311 
	C912.669067,291.100830 916.156799,294.486969 916.396179,310.430054 
	C916.493713,316.924011 916.579895,323.427216 916.350159,329.914825 
	C916.037170,338.755402 912.546204,342.216797 903.741455,342.695160 
	C900.293518,342.882477 896.826965,342.725830 892.773315,342.725830 
	C892.773315,331.037720 892.773315,319.769562 892.774109,308.001801 
z"/>
</svg>